<?xml version="1.0" encoding="utf-8" ?>

<!DOCTYPE svg PUBLIC "-//W3C//DTD SVG 1.1//EN"
    "http://www.w3.org/Graphics/SVG/1.1/DTD/svg11.dtd">


<svg id="tvr2014-logo-symbol" 
     xmlns="http://www.w3.org/2000/svg" 
     xmlns:xlink="http://www.w3.org/1999/xlink" 
     height="100%" width="100%" 
     viewBox="0 0 34.715 27" 
     zoomAndPan="disable"
     preserveAspectRatio="xMinYMin meet">
  

  <g id="svg_LogoSymbol-scroll">

    <radialGradient id="ScreenGradient" cx="7.2964" cy="6.5449" r="26.6316" gradientUnits="userSpaceOnUse">
      <stop offset="0" style="stop-color: #E9B586" />
      <stop offset="0.75" style="stop-color: #D4773A" />
      <stop offset="1" style="stop-color: #C1531C" />
    </radialGradient>
    
    <path id="svg_Logo-Screen-scroll" fill="url(#ScreenGradient)" d="M34.715,8.659c0-1.595-1.053-2.994-2.65-3.449c-4.317-1.103-9.365-2.314-14.434-3.301l-3.494,1.534 l-1.542-2.431C9.563,0.528,6.61,0.169,3.895,0.007C2.824-0.056,1.88,0.283,1.118,1.014c-0.771,0.73-1.144,1.648-1.117,2.7 c0.209,6.852,1.017,13.812,2.75,20.565c0.426,1.666,1.933,2.78,3.684,2.718c2.726-0.091,5.57-0.332,8.406-0.704l0.497-0.608 l1.68,0.297c1.453-0.225,2.894-0.482,4.309-0.77l0.758-0.803l1.655,0.276c1.877-0.439,3.686-0.93,5.384-1.467 c1.053-0.339,1.834-1.021,2.251-2.022c0.487-1.174,1.02-2.67,1.514-4.239L32.381,13.5l1.719-0.915 C34.475,10.986,34.715,9.573,34.715,8.659z" />


    <radialGradient id="LightGradient" cx="10.4292" cy="11.0166" r="16.3395" fx="6.6706" fy="2.8781" gradientTransform="matrix(0.947 -0.3213 0.3361 0.9907 -3.1497 3.4528)" gradientUnits="userSpaceOnUse">
      <stop offset="0" style="stop-color: #F0E6C9" />
      <stop offset="0.7" style="stop-color: #E9B586" />
      <stop offset="1" style="stop-color: #D4773A" />
    </radialGradient>
    
    <path id="svg_Logo-LightWave-scroll" fill="url(#LightGradient)" d="M15.004,23.004c-0.864-1.544-1.558-3.23-2.016-5.021c-0.476-1.858-0.665-3.69-0.583-5.442 c0.085-1.851,0.475-3.642,1.158-5.28c0.733-1.76,1.814-3.362,3.235-4.676c0.274-0.252,0.535-0.445,0.833-0.676 c-1.696-0.318-3.36-0.644-5.035-0.896c-0.687,1.138-1.254,2.334-1.682,3.579c-0.724,2.106-1.091,4.357-1.105,6.642 c-0.013,2.137,0.282,4.346,0.899,6.561c0.591,2.121,1.439,4.11,2.471,5.927c0.506,0.89,1.062,1.747,1.663,2.572 c0.728-0.096,1.453-0.199,2.177-0.312C16.271,25.046,15.592,24.055,15.004,23.004z" />


    <radialGradient id="DarkGradient" cx="17.3286" cy="11.6592" r="12.9536" fx="29.0018" fy="17.2745" gradientTransform="matrix(-0.9851 -0.1721 0.1754 -1.004 32.3538 26.3467)" gradientUnits="userSpaceOnUse">
      <stop offset="0" style="stop-color: #C75E1D" />
      <stop offset="0.75" style="stop-color: #8D361A" />
      <stop offset="1" style="stop-color: #521010" />
    </radialGradient>
    
    <path id="svg_Logo-DarkWave-scroll" fill="url(#DarkGradient)" d="M22.554,22.963c-0.393-0.74-0.679-1.541-0.822-2.372c-0.146-0.846-0.133-1.651,0.021-2.39 c0.158-0.759,0.464-1.449,0.9-2.038c0.45-0.606,1.039-1.108,1.747-1.46c0.731-0.363,1.588-0.566,2.544-0.562 c0.985,0.004,1.972,0.229,2.908,0.64c0.955,0.417,1.845,1.021,2.616,1.766c0.148,0.145,0.282,0.257,0.421,0.41 c0.465-1.479,0.891-2.976,1.211-4.372c-0.934-0.689-1.937-1.258-2.991-1.672c-1.504-0.591-3.072-0.866-4.612-0.777 c-1.469,0.084-2.762,0.493-3.84,1.136c-1.027,0.613-1.861,1.438-2.478,2.404c-0.589,0.923-0.985,1.981-1.164,3.117 c-0.174,1.095-0.149,2.274,0.094,3.497c0.239,1.192,0.667,2.334,1.236,3.389c0.288,0.532,0.621,1.042,0.981,1.533 c0.821-0.167,1.613-0.339,2.413-0.526C23.274,24.157,22.881,23.58,22.554,22.963z" />
  
  </g>

  <rect width="34.715" height="42" fill-opacity="0" />

</svg>