<?xml version="1.0" encoding="utf-8" ?>

<!DOCTYPE svg PUBLIC "-//W3C//DTD SVG 1.1//EN"
    "http://www.w3.org/Graphics/SVG/1.1/DTD/svg11.dtd">


<svg id="tvr2014-logo-text" 
     xmlns="http://www.w3.org/2000/svg" 
     xmlns:xlink="http://www.w3.org/1999/xlink" 
     height="100%" width="100%" 
     viewBox="0 0 207.166 42"
     zoomAndPan="disable"
     preserveAspectRatio="xMinYMin meet">

  <path id="Logo_Text" fill="#FFF" d="M149.807,23.5c0-6.308-3.385-9.859-8.898-9.859h-3.092c-5.514,0-8.896,3.552-8.896,9.859 v4.263c0,6.308,3.383,9.857,8.896,9.857h3.092c5.514,0,8.898-3.55,8.898-9.857V23.5z M174.372,23.5c0-6.308-3.385-9.859-8.899-9.859 h-3.092c-5.516,0-8.896,3.552-8.896,9.859v4.263c0,6.308,3.381,9.857,8.896,9.857h3.092c5.515,0,8.899-3.55,8.899-9.857V23.5z M178.13,36.075c0,0.583,0.461,1.044,1.045,1.044h3.134c0.584,0,1.044-0.461,1.044-1.044V19.991c0-0.668,0.585-1.252,1.253-1.252 h5.432v17.336c0,0.583,0.459,1.044,1.044,1.044h3.134c0.583,0,1.044-0.461,1.044-1.044V18.739h2.631 c2.758,0,4.053,2.087,4.053,5.222v12.114c0,0.583,0.459,1.044,1.046,1.044h3.133c0.584,0,1.045-0.461,1.045-1.044V24.001 c0-6.308-3.385-9.858-8.9-9.858H181.89c-1.921,0-3.76,1.839-3.76,3.761V36.075z M54.935,37.119c0.585,0,1.044-0.461,1.044-1.044 v-2.508c0-0.584-0.459-1.043-1.044-1.043h-7.019c-2.59,0-3.885-1.547-4.053-4.345h6.226c5.264,0,7.77-2.758,7.77-7.02 c0-4.052-2.506-7.018-7.77-7.018H47.54c-5.514,0-8.898,3.05-8.898,9.357v4.263c0,6.308,3.385,9.356,8.898,9.356H54.935z M29.661,36.075c0,0.583,0.459,1.044,1.044,1.044h3.133c0.585,0,1.045-0.461,1.045-1.044V24.001c0-6.308-3.385-9.858-8.898-9.858 h-5.097V6.415c0-0.585-0.46-1.045-1.044-1.045H16.71c-0.584,0-1.044,0.46-1.044,1.045v29.66c0,0.583,0.46,1.044,1.044,1.044h3.134 c0.584,0,1.044-0.461,1.044-1.044V18.739h4.721c2.757,0,4.053,2.087,4.053,5.222V36.075z M92.073,37.119h3.007 c0.585,0,1.296-0.417,1.589-0.919l6.015-10.402c0.293-0.501,0.502-1.378,0.502-1.963v-8.648c0-0.669-0.376-1.044-1.044-1.044h-3.134 c-0.669,0-1.044,0.375-1.044,1.044v7.979c0,0.584-0.251,1.462-0.501,1.964l-3.886,6.644l-3.885-6.644 c-0.251-0.502-0.502-1.38-0.502-1.964v-7.979c0-0.669-0.376-1.044-1.045-1.044h-3.133c-0.668,0-1.045,0.375-1.045,1.044v8.648 c0,0.585,0.21,1.462,0.502,1.963L90.485,36.2C90.778,36.702,91.488,37.119,92.073,37.119L92.073,37.119z M69.139,28.931 c0,4.848,3.174,8.188,7.227,8.188H80c0.584,0,1.044-0.461,1.044-1.044v-2.508c0-0.584-0.46-1.043-1.044-1.043h-2.841 c-1.712,0-2.799-1.462-2.799-3.552V18.739h4.805c0.584,0,1.044-0.459,1.044-1.046v-2.507c0-0.584-0.46-1.044-1.044-1.044H74.36 V9.965c0-0.585-0.46-1.043-1.044-1.043h-3.134c-0.584,0-1.044,0.458-1.044,1.043V28.931z M0,28.931c0,4.848,3.175,8.188,7.228,8.188 h3.635c0.584,0,1.044-0.461,1.044-1.044v-2.508c0-0.584-0.46-1.043-1.044-1.043H8.021c-1.712,0-2.798-1.462-2.798-3.552V18.739 h4.804c0.584,0,1.044-0.459,1.044-1.046v-2.507c0-0.584-0.46-1.044-1.044-1.044H5.222V9.965c0-0.585-0.46-1.043-1.045-1.043H1.044 C0.459,8.921,0,9.38,0,9.965V28.931z M114.465,36.075c0,0.583,0.459,1.044,1.044,1.044h3.134c0.584,0,1.044-0.461,1.044-1.044 V22.288c0-2.087,1.087-3.549,2.8-3.549h2.84c0.585,0,1.045-0.459,1.045-1.046v-2.507c0-0.584-0.46-1.044-1.045-1.044h-3.635 c-4.052,0-7.227,3.343-7.227,8.188V36.075z M140.533,18.446c2.756,0,4.051,2.088,4.051,5.222v3.926c0,3.134-1.295,5.223-4.051,5.223 h-2.34c-2.757,0-4.053-2.089-4.053-5.223v-3.926c0-3.134,1.296-5.222,4.053-5.222H140.533z M165.097,18.446 c2.758,0,4.053,2.088,4.053,5.222v3.926c0,3.134-1.295,5.223-4.053,5.223h-2.339c-2.758,0-4.053-2.089-4.053-5.223v-3.926 c0-3.134,1.295-5.222,4.053-5.222H165.097z M47.916,18.655h2.34c1.88,0,2.381,1.336,2.381,2.505c0,1.171-0.543,2.425-2.423,2.425 h-6.351C43.863,20.493,45.159,18.655,47.916,18.655z" />

  <rect width="207.166" height="42" fill-opacity="0" />

</svg>